<svg xmlns="http://www.w3.org/2000/svg" width="375" viewBox="0 0 375 375" height="375" version="1.0"><defs><clipPath id="a"><path d="M 59.984375 56.132812 L 64.238281 56.132812 L 64.238281 60.386719 L 59.984375 60.386719 Z M 59.984375 56.132812"/></clipPath><clipPath id="b"><path d="M 66.558594 61.765625 L 70.8125 61.765625 L 70.8125 66.015625 L 66.558594 66.015625 Z M 66.558594 61.765625"/></clipPath><clipPath id="c"><path d="M 59.984375 68.023438 L 64.238281 68.023438 L 64.238281 72.277344 L 59.984375 72.277344 Z M 59.984375 68.023438"/></clipPath><clipPath id="d"><path d="M 66.558594 68.023438 L 70.8125 68.023438 L 70.8125 72.277344 L 66.558594 72.277344 Z M 66.558594 68.023438"/></clipPath><clipPath id="e"><path d="M 66.558594 56.132812 L 70.8125 56.132812 L 70.8125 60.386719 L 66.558594 60.386719 Z M 66.558594 56.132812"/></clipPath><clipPath id="f"><path d="M 59.984375 61.765625 L 64.238281 61.765625 L 64.238281 66.015625 L 59.984375 66.015625 Z M 59.984375 61.765625"/></clipPath></defs><g clip-path="url(#a)"><path fill="#100F0D" d="M 64.234375 58.257812 C 64.234375 59.433594 63.285156 60.386719 62.109375 60.386719 C 61.453125 60.386719 60.867188 60.085938 60.476562 59.617188 C 60.183594 59.269531 60.003906 58.824219 59.988281 58.335938 C 59.988281 58.3125 59.984375 58.285156 59.984375 58.257812 C 59.984375 57.085938 60.9375 56.132812 62.109375 56.132812 C 62.351562 56.132812 62.582031 56.175781 62.800781 56.25 C 63.246094 56.402344 63.628906 56.699219 63.882812 57.089844 C 64.105469 57.425781 64.234375 57.828125 64.234375 58.257812"/></g><g clip-path="url(#b)"><path fill="#100F0D" d="M 70.8125 63.890625 C 70.8125 65.066406 69.859375 66.015625 68.6875 66.015625 C 68.027344 66.015625 67.441406 65.71875 67.050781 65.25 C 66.761719 64.898438 66.578125 64.453125 66.5625 63.96875 C 66.5625 63.941406 66.5625 63.914062 66.5625 63.890625 C 66.5625 62.714844 67.511719 61.765625 68.6875 61.765625 C 68.925781 61.765625 69.160156 61.804688 69.375 61.878906 C 69.824219 62.03125 70.203125 62.332031 70.460938 62.71875 C 70.679688 63.054688 70.8125 63.457031 70.8125 63.890625"/></g><g clip-path="url(#c)"><path fill="#100F0D" d="M 64.234375 70.148438 C 64.234375 71.324219 63.285156 72.277344 62.109375 72.277344 C 61.453125 72.277344 60.867188 71.976562 60.476562 71.507812 C 60.183594 71.160156 60.003906 70.714844 59.988281 70.226562 C 59.988281 70.203125 59.984375 70.175781 59.984375 70.148438 C 59.984375 68.976562 60.9375 68.023438 62.109375 68.023438 C 62.351562 68.023438 62.582031 68.066406 62.800781 68.140625 C 63.246094 68.292969 63.628906 68.589844 63.882812 68.980469 C 64.105469 69.316406 64.234375 69.71875 64.234375 70.148438"/></g><g clip-path="url(#d)"><path fill="#100F0D" d="M 70.8125 70.148438 C 70.8125 71.324219 69.859375 72.277344 68.6875 72.277344 C 68.027344 72.277344 67.441406 71.976562 67.050781 71.507812 C 66.761719 71.160156 66.578125 70.714844 66.5625 70.226562 C 66.5625 70.203125 66.5625 70.175781 66.5625 70.148438 C 66.5625 68.976562 67.511719 68.023438 68.6875 68.023438 C 68.925781 68.023438 69.160156 68.066406 69.375 68.140625 C 69.824219 68.292969 70.203125 68.589844 70.460938 68.980469 C 70.679688 69.316406 70.8125 69.71875 70.8125 70.148438"/></g><g clip-path="url(#e)"><path fill="#100F0D" d="M 70.8125 58.257812 C 70.8125 59.433594 69.859375 60.386719 68.6875 60.386719 C 68.027344 60.386719 67.441406 60.085938 67.050781 59.617188 C 66.761719 59.269531 66.578125 58.824219 66.5625 58.335938 C 66.5625 58.3125 66.5625 58.285156 66.5625 58.257812 C 66.5625 57.085938 67.511719 56.132812 68.6875 56.132812 C 68.925781 56.132812 69.160156 56.175781 69.375 56.25 C 69.824219 56.402344 70.203125 56.699219 70.460938 57.089844 C 70.679688 57.425781 70.8125 57.828125 70.8125 58.257812"/></g><g clip-path="url(#f)"><path fill="#100F0D" d="M 64.234375 63.890625 C 64.234375 65.066406 63.285156 66.015625 62.109375 66.015625 C 61.453125 66.015625 60.867188 65.71875 60.476562 65.25 C 60.183594 64.898438 60.003906 64.453125 59.988281 63.96875 C 59.988281 63.941406 59.984375 63.914062 59.984375 63.890625 C 59.984375 62.714844 60.9375 61.765625 62.109375 61.765625 C 62.351562 61.765625 62.582031 61.804688 62.800781 61.878906 C 63.246094 62.03125 63.628906 62.332031 63.882812 62.71875 C 64.105469 63.054688 64.234375 63.457031 64.234375 63.890625"/></g></svg>